<svg width="18" height="18" viewBox="0 0 18 18" fill="none" xmlns="http://www.w3.org/2000/svg">
<g id="Group 3 Copy 3">
<path id="Fill 1" fill-rule="evenodd" clip-rule="evenodd" d="M15.3432 10.024C15.3432 7.39795 13.7112 6.50195 12.2012 6.50195C10.8052 6.50195 9.89119 7.40595 9.62919 7.93495H9.59519V6.74395H6.99219V15.341H9.69819V10.68C9.69819 9.43695 10.4862 8.83295 11.2882 8.83295C12.0482 8.83295 12.6372 9.25995 12.6372 10.645V15.341H15.3432V10.024ZM5.57413 3.99296C5.57413 3.09596 4.87512 2.43896 4.01312 2.43896C3.15212 2.43896 2.45312 3.09596 2.45312 3.99296C2.45312 4.88997 3.15212 5.54597 4.01312 5.54597C4.87512 5.54597 5.57413 4.88997 5.57413 3.99296ZM2.66016 15.3341H5.36616V6.73706H2.66016V15.3341ZM18.001 1.328V16.671C18.001 17.405 17.406 18 16.672 18H1.329C0.595 18 0 17.405 0 16.671V1.328C0 0.595 0.595 0 1.329 0H16.672C17.406 0 18.001 0.595 18.001 1.328Z" fill="#323232"/>
</g>
</svg>
